<svg width="25" height="24" viewBox="0 0 25 24" fill="none" xmlns="http://www.w3.org/2000/svg">
<g clip-path="url(#clip0_113_1397)">
<path d="M12.5 21.25C17.6086 21.25 21.75 17.1086 21.75 12C21.75 6.89137 17.6086 2.75 12.5 2.75C7.39137 2.75 3.25 6.89137 3.25 12C3.25 17.1086 7.39137 21.25 12.5 21.25Z" stroke="#121331" stroke-width="1.5" stroke-miterlimit="10" stroke-linecap="round"/>
<path fill-rule="evenodd" clip-rule="evenodd" d="M6.44467 18.9926L6.61151 18.7616C7.41053 17.6553 8.69218 17 10.0568 17H14.9437C16.3085 17 17.5902 17.6554 18.3892 18.7618L18.5558 18.9925C18.9397 18.6597 19.2959 18.2959 19.6206 17.9048L19.6052 17.8836C18.5242 16.3867 16.7901 15.5 14.9437 15.5H10.0568C8.21054 15.5 6.47654 16.3866 5.39552 17.8833L5.37988 17.9049C5.70452 18.296 6.06075 18.6598 6.44467 18.9926Z" fill="#121331"/>
<path d="M9.75 9C9.75 7.48122 10.9812 6.25 12.5 6.25V6.25C14.0188 6.25 15.25 7.48122 15.25 9V10.5C15.25 12.0188 14.0188 13.25 12.5 13.25V13.25C10.9812 13.25 9.75 12.0188 9.75 10.5V9Z" stroke="#121331" stroke-width="1.5" stroke-linejoin="round"/>
</g>
<defs>
<clipPath id="clip0_113_1397">
<rect width="24" height="24" fill="white" transform="translate(0.5)"/>
</clipPath>
</defs>
</svg>
