<?xml version="1.0" encoding="utf-8"?>
<!-- Generator: Adobe Illustrator 23.0.3, SVG Export Plug-In . SVG Version: 6.00 Build 0)  -->
<svg version="1.1" id="Layer_1" xmlns="http://www.w3.org/2000/svg" xmlns:xlink="http://www.w3.org/1999/xlink" x="0px" y="0px"
	 viewBox="0 0 1200 1200" enable-background="new 0 0 1200 1200" xml:space="preserve">
<g>
	<path fill="#3A3A3A" d="M903.244,1084.752c-3.548,9.661-10.253,16.168-20.309,21.295c-22.278,11.634-46.332,16.563-71.176,20.309
		c-31.549,4.929-62.897,10.252-94.249,15.379c-31.549,5.324-63.291,8.873-95.235,8.085c-14.59-0.395-28.984-0.395-43.574,0
		c-30.563,0.986-60.726-2.17-90.696-6.902c-39.04-6.112-77.689-13.013-116.531-19.125c-21.489-3.353-41.206-10.845-60.138-20.704
		c-11.235-5.718-15.38-15.971-16.954-26.815c-1.579-12.422-0.789-24.646,4.732-36.279c2.561-5.521,5.127-11.239,7.095-17.154
		c3.553-9.662,8.679-17.943,19.322-21.887c-2.758-26.027-1.969-50.081,20.112-69.01c-0.789-3.352-1.179-6.703-2.166-9.661
		c-10.451-37.068-12.622-74.53-8.872-112.584c4.929-50.477,23.66-96.417,51.656-139.007c17.354-26.42,35.887-52.25,54.222-78.276
		c21.296-29.97,39.632-61.32,50.28-96.022c5.719-18.534,10.451-37.463,14.59-56.588c2.368-10.845,2.368-22.28,0.197-34.111
		c-3.745-0.591-7.1-1.38-10.451-1.577c-9.069-0.395-17.941-0.395-27.015-1.183c-5.319-0.395-10.841-0.987-15.967-2.761
		c-10.056-3.155-15.972-12.225-14.985-22.083c0.395-2.563,1.974-5.324,3.745-7.295c6.113-6.507,13.801-10.845,22.278-14.197
		c8.284-3.154,16.367-6.703,24.646-10.056c0.395-0.196,0.395-0.788,1.382-2.169c-0.395-1.774-0.785-4.732-1.969-7.098
		c-5.521-10.647-10.845-21.295-17.156-31.548c-13.012-21.491-21.094-44.757-27.207-68.615c-1.184-4.14-1.974-8.478-1.579-12.619
		c2.166-16.956,3.35-33.913,8.674-50.278c13.806-42.391,37.663-77.883,76.9-103.318c30.755-19.52,64.278-24.844,100.16-18.139
		c40.026,7.493,68.813,30.759,91.688,61.123c15.38,20.309,27.207,41.998,32.531,66.447c3.355,15.183,6.113,30.759,7.1,46.336
		c0.395,8.083-2.368,16.759-5.127,24.843c-6.903,20.112-14.196,40.224-26.028,58.561c-6.903,10.844-13.012,22.28-18.138,35.885
		c10.253,3.944,18.928,7.493,27.799,10.844c8.477,3.154,15.775,7.887,22.081,14c3.158,2.957,4.145,6.31,3.75,10.252
		c-1.382,9.859-6.113,17.154-16.564,19.717c-5.719,1.38-11.832,1.972-17.743,2.366c-10.845,0.789-21.888,0-33.321,2.563
		c-0.789,2.761-1.776,5.324-1.776,7.887c-0.197,13.408,0.395,26.422,3.548,39.434c7.1,28.195,14.196,56.193,27.804,82.22
		c8.082,15.183,16.559,30.365,26.023,44.561c13.016,19.717,27.015,38.646,40.816,57.771c23.857,33.322,45.153,68.024,58.954,106.473
		c7.298,20.111,12.227,40.815,13.998,62.108c0.987,9.859,2.368,19.717,2.566,29.773c0.785,29.773-2.763,59.349-11.437,88.136
		c-0.789,2.366-0.987,4.732-1.776,7.689c21.493,18.141,23.857,41.998,20.309,67.236c4.732,4.337,9.859,7.887,13.608,12.817
		c3.35,4.535,5.517,10.055,7.49,15.379c3.548,8.676,7.298,17.549,9.464,26.815C907.186,1064.049,906.993,1074.5,903.244,1084.752z"
		/>
</g>
</svg>
